<svg id="Layer_1" data-name="Layer 1" xmlns="http://www.w3.org/2000/svg" viewBox="0 0 448 512"><title>Artboard 1</title><path d="M448,360V24A23.94,23.94,0,0,0,424,0H96A96,96,0,0,0,0,96V416a96,96,0,0,0,96,96H424a23.94,23.94,0,0,0,24-24V472a24.19,24.19,0,0,0-8.9-18.7c-4.2-15.4-4.2-59.3,0-74.7A23.83,23.83,0,0,0,448,360ZM128,134a6,6,0,0,1,6-6H346a6,6,0,0,1,6,6v20a6,6,0,0,1-6,6H134a6,6,0,0,1-6-6Zm0,64a6,6,0,0,1,6-6H346a6,6,0,0,1,6,6v20a6,6,0,0,1-6,6H134a6,6,0,0,1-6-6ZM381.4,448H96a32,32,0,0,1,0-64H381.4C379.5,401.1,379.5,430.9,381.4,448Z"/></svg>