<svg id="Layer_1" data-name="Layer 1" xmlns="http://www.w3.org/2000/svg" viewBox="0 0 480 512"><title>Artboard 1</title><path d="M438.66,212.33l-11.24-28.1L407.49,134.4A111.46,111.46,0,0,0,303.5,64h-127a111.47,111.47,0,0,0-104,70.4L52.58,184.23l-11.24,28.1A63.86,63.86,0,0,0,0,272v48a63.48,63.48,0,0,0,16,41.93V416a32,32,0,0,0,32,32H80a32,32,0,0,0,32-32V384H368v32a32,32,0,0,0,32,32h32a32,32,0,0,0,32-32V361.93A63.44,63.44,0,0,0,480,320V272A63.86,63.86,0,0,0,438.66,212.33ZM131.93,158.17A48,48,0,0,1,176.5,128h127a48,48,0,0,1,44.57,30.17L368,208H112ZM80,319.8c-19.2,0-32-12.76-32-31.9S60.8,256,80,256s48,28.71,48,47.85S99.2,319.8,80,319.8Zm320,0c-19.2,0-48,3.19-48-15.95S380.8,256,400,256s32,12.76,32,31.9S419.2,319.8,400,319.8Z"/></svg>