<svg id="Layer_1" data-name="Layer 1" xmlns="http://www.w3.org/2000/svg" viewBox="0 0 640 512"><title>Artboard 1</title><path d="M320,400c-75.85,0-137.25-58.71-142.9-133.11L72.2,185.82c-13.79,17.3-26.48,35.59-36.72,55.59a32.35,32.35,0,0,0,0,29.19C89.71,376.41,197.07,448,320,448c26.91,0,52.87-4,77.89-10.46L346,397.39A143.62,143.62,0,0,1,320,400Zm313.82,58.1L523.27,372.66a331.31,331.31,0,0,0,81.25-102.07,32.35,32.35,0,0,0,0-29.19C550.29,135.59,442.93,64,320,64a308.08,308.08,0,0,0-147.32,37.7L45.46,3.37A16,16,0,0,0,23,6.17h0L3.37,31.45A16,16,0,0,0,6.18,53.9L594.54,508.63a16,16,0,0,0,22.45-2.8h0l19.64-25.27A16,16,0,0,0,633.82,458.1ZM450.1,316.1l-39.3-30.38A94.76,94.76,0,0,0,294.69,163.79,47.65,47.65,0,0,1,304,192a47,47,0,0,1-1.54,10l-73.61-56.89A142.28,142.28,0,0,1,320,112,143.93,143.93,0,0,1,464,255.84V256c0,21.63-5.29,41.79-13.9,60.11Z"/></svg>