<svg id="Layer_1" data-name="Layer 1" xmlns="http://www.w3.org/2000/svg" viewBox="0 0 640 512"><title>Artboard 1</title><path d="M512.9,192a126.53,126.53,0,0,0-42.4,6.9L437.6,144H520a23.94,23.94,0,0,0,24-24V88a23.94,23.94,0,0,0-24-24H474.7a24,24,0,0,0-17.8,7.9l-37.5,41.7-22.8-38A24.16,24.16,0,0,0,376,64H296a16,16,0,0,0-16,16V96a16,16,0,0,0,16,16h66.4l19.2,32H227.9c-17.7-23.1-44.9-40-99.9-40H72.5C59,104,47.7,115,48,128.5A24,24,0,0,0,72,152h56c24.5,0,38.7,10.9,47.8,24.8l-11.3,20.5a128,128,0,0,0-41.3-5.2C55.9,194.5,1.6,249.6,0,317a128.06,128.06,0,0,0,252,35h84.2a24,24,0,0,0,24-25.1,151.48,151.48,0,0,1,56.2-125l12.5,20.8a127.83,127.83,0,0,0-44.8,98.2c.5,69.6,57.2,126.5,126.8,127.1A128,128,0,0,0,640.1,318.9C639.4,249.3,582.5,192.5,512.9,192ZM128,400a80,80,0,0,1,0-160,74.4,74.4,0,0,1,12.5,1L99,316.4A24,24,0,0,0,120,352h81.3A80.22,80.22,0,0,1,128,400Zm463.9-75.6c-2.2,40.6-35,73.4-75.5,75.5a79.94,79.94,0,0,1-62.3-135l49.4,82.4a16.07,16.07,0,0,0,22,5.5l13.7-8.2a16.07,16.07,0,0,0,5.5-22l-48.6-80.9a76.59,76.59,0,0,1,15.9-1.6,80,80,0,0,1,79.9,84.3Z"/></svg>