<svg id="Layer_1" data-name="Layer 1" xmlns="http://www.w3.org/2000/svg" viewBox="0 0 384 512"><title>Artboard 1</title><path d="M336,64H256a64,64,0,0,0-128,0H48A48,48,0,0,0,0,112V464a48,48,0,0,0,48,48H336a48,48,0,0,0,48-48V112A48,48,0,0,0,336,64ZM96,424a24,24,0,1,1,24-24A23.94,23.94,0,0,1,96,424Zm0-96a24,24,0,1,1,24-24A23.94,23.94,0,0,1,96,328Zm0-96a24,24,0,1,1,24-24A23.94,23.94,0,0,1,96,232ZM192,40a24,24,0,1,1-24,24A23.94,23.94,0,0,1,192,40ZM320,408a8,8,0,0,1-8,8H168a8,8,0,0,1-8-8V392a8,8,0,0,1,8-8H312a8,8,0,0,1,8,8Zm0-96a8,8,0,0,1-8,8H168a8,8,0,0,1-8-8V296a8,8,0,0,1,8-8H312a8,8,0,0,1,8,8Zm0-96a8,8,0,0,1-8,8H168a8,8,0,0,1-8-8V200a8,8,0,0,1,8-8H312a8,8,0,0,1,8,8Z"/></svg>